<svg width="17" height="16" viewBox="0 0 17 16" fill="none" xmlns="http://www.w3.org/2000/svg">
<path d="M2.99314 14C2.86057 13.9999 2.73348 13.9471 2.6398 13.8533C2.577 13.7909 2.53164 13.7131 2.50824 13.6277C2.48485 13.5424 2.48424 13.4523 2.50647 13.3666L3.3398 10.3133C3.36701 10.2308 3.4126 10.1556 3.47314 10.0933L10.9731 2.59997C11.3659 2.22074 11.8905 2.00879 12.4365 2.00879C12.9824 2.00879 13.5071 2.22074 13.8998 2.59997C14.0923 2.79195 14.245 3.02003 14.3492 3.27113C14.4535 3.52223 14.5071 3.79143 14.5071 4.0633C14.5071 4.33517 14.4535 4.60437 14.3492 4.85548C14.245 5.10658 14.0923 5.33466 13.8998 5.52664L6.3998 13.0266C6.33752 13.0872 6.26229 13.1328 6.1798 13.16L3.12647 14H2.99314ZM4.27314 10.7066L3.70647 12.7866L5.78647 12.22L13.1665 4.81997C13.3584 4.62008 13.4655 4.35373 13.4655 4.07664C13.4655 3.79954 13.3584 3.53319 13.1665 3.3333C12.9629 3.13813 12.6918 3.02917 12.4098 3.02917C12.1278 3.02917 11.8567 3.13813 11.6531 3.3333L4.27314 10.7066Z" fill="#1E1E1E"/>
</svg>
