<svg width="16" height="16" viewBox="0 0 16 16" fill="none" xmlns="http://www.w3.org/2000/svg">
<path d="M13.02 12.98L10.5533 10.5133C11.4323 9.58276 11.9204 8.35017 11.9167 7.07011C11.913 5.79005 11.4179 4.56029 10.5336 3.63481C9.64922 2.70932 8.44323 2.15881 7.16466 2.09696C5.88609 2.03511 4.63259 2.46666 3.66305 3.30246C2.69352 4.13827 2.082 5.3145 1.95479 6.58823C1.82757 7.86196 2.19439 9.1359 2.97947 10.1469C3.76456 11.158 4.90794 11.8289 6.17349 12.0212C7.43904 12.2134 8.73009 11.9123 9.77999 11.18L12.3133 13.7133C12.4071 13.8069 12.5342 13.8595 12.6667 13.8595C12.7992 13.8595 12.9262 13.8069 13.02 13.7133C13.0705 13.6665 13.1108 13.6098 13.1383 13.5467C13.1658 13.4836 13.1801 13.4155 13.1801 13.3466C13.1801 13.2778 13.1658 13.2097 13.1383 13.1466C13.1108 13.0835 13.0705 13.0268 13.02 12.98ZM3.01999 6.97998C3.01999 6.18885 3.25459 5.4155 3.69412 4.7577C4.13364 4.0999 4.75836 3.58721 5.48926 3.28446C6.22016 2.98171 7.02443 2.9025 7.80036 3.05684C8.57628 3.21118 9.28901 3.59214 9.84842 4.15155C10.4078 4.71096 10.7888 5.42369 10.9431 6.19962C11.0975 6.97554 11.0183 7.77981 10.7155 8.51071C10.4128 9.24162 9.90007 9.86633 9.24228 10.3059C8.58448 10.7454 7.81112 10.98 7.01999 10.98C6.4947 10.9826 5.97404 10.8818 5.48773 10.6832C5.00142 10.4846 4.55899 10.1921 4.18569 9.82256C3.8124 9.45299 3.51556 9.0135 3.31212 8.5292C3.10867 8.0449 3.00261 7.52527 2.99999 6.99998L3.01999 6.97998Z" fill="#83929F"/>
</svg>
