<svg width="16" height="16" viewBox="0 0 16 16" fill="none" xmlns="http://www.w3.org/2000/svg">
<path d="M13.5 3.79967H10.9467V3.06634C10.9467 2.60779 10.765 2.16791 10.4413 1.84304C10.1177 1.51817 9.67855 1.33477 9.22 1.33301H6.78C6.32145 1.33477 5.88228 1.51817 5.55866 1.84304C5.23503 2.16791 5.05333 2.60779 5.05333 3.06634V3.79967H2.5C2.36739 3.79967 2.24021 3.85235 2.14645 3.94612C2.05268 4.03989 2 4.16707 2 4.29967C2 4.43228 2.05268 4.55946 2.14645 4.65323C2.24021 4.747 2.36739 4.79967 2.5 4.79967H3.22V12.933C3.22 13.3916 3.4017 13.8314 3.72532 14.1563C4.04894 14.4812 4.48811 14.6646 4.94667 14.6663H11.0533C11.5119 14.6646 11.9511 14.4812 12.2747 14.1563C12.5983 13.8314 12.78 13.3916 12.78 12.933V4.79967H13.5C13.6326 4.79967 13.7598 4.747 13.8536 4.65323C13.9473 4.55946 14 4.43228 14 4.29967C14 4.16707 13.9473 4.03989 13.8536 3.94612C13.7598 3.85235 13.6326 3.79967 13.5 3.79967ZM6.05333 3.06634C6.05245 2.97035 6.0706 2.87514 6.10672 2.78621C6.14285 2.69728 6.19623 2.61638 6.2638 2.5482C6.33136 2.48001 6.41177 2.42589 6.50037 2.38895C6.58897 2.35202 6.68401 2.333 6.78 2.33301H9.22C9.31599 2.333 9.41103 2.35202 9.49963 2.38895C9.58823 2.42589 9.66864 2.48001 9.7362 2.5482C9.80377 2.61638 9.85715 2.69728 9.89328 2.78621C9.9294 2.87514 9.94755 2.97035 9.94667 3.06634V3.79967H6.05333V3.06634ZM11.78 12.933C11.7809 13.029 11.7627 13.1242 11.7266 13.2131C11.6905 13.3021 11.6371 13.383 11.5695 13.4512C11.502 13.5193 11.4216 13.5735 11.333 13.6104C11.2444 13.6473 11.1493 13.6663 11.0533 13.6663H4.94667C4.85068 13.6663 4.75564 13.6473 4.66703 13.6104C4.57843 13.5735 4.49803 13.5193 4.43046 13.4512C4.3629 13.383 4.30951 13.3021 4.27339 13.2131C4.23727 13.1242 4.21912 13.029 4.22 12.933V4.79967H11.78V12.933Z" fill="#FF4343"/>
<path d="M6.83325 6.66699C6.70118 6.66872 6.575 6.72195 6.48161 6.81535C6.38821 6.90874 6.33498 7.03492 6.33325 7.16699V11.5003C6.33325 11.6329 6.38593 11.7601 6.4797 11.8539C6.57347 11.9476 6.70064 12.0003 6.83325 12.0003C6.96586 12.0003 7.09304 11.9476 7.18681 11.8539C7.28057 11.7601 7.33325 11.6329 7.33325 11.5003V7.16699C7.33153 7.03492 7.27829 6.90874 7.1849 6.81535C7.0915 6.72195 6.96532 6.66872 6.83325 6.66699Z" fill="#FF4343"/>
<path d="M9.16675 6.66699C9.03468 6.66872 8.9085 6.72195 8.8151 6.81535C8.72171 6.90874 8.66847 7.03492 8.66675 7.16699V11.5003C8.66675 11.6329 8.71943 11.7601 8.81319 11.8539C8.90696 11.9476 9.03414 12.0003 9.16675 12.0003C9.29936 12.0003 9.42653 11.9476 9.5203 11.8539C9.61407 11.7601 9.66675 11.6329 9.66675 11.5003V7.16699C9.66502 7.03492 9.61179 6.90874 9.51839 6.81535C9.425 6.72195 9.29882 6.66872 9.16675 6.66699Z" fill="#FF4343"/>
</svg>
